<svg version="1.1" id="Layer_1" xmlns="http://www.w3.org/2000/svg" xmlns:xlink="http://www.w3.org/1999/xlink" x="0px" y="0px"
	 width="100%" viewBox="0 0 500 500" enable-background="new 0 0 500 500" xml:space="preserve">
<path fill="#FEFFFF" opacity="1.000000" stroke="none" 
	d="
M298.000000,501.000000 
	C198.666687,501.000000 99.833382,501.000000 1.000053,501.000000 
	C1.000035,334.333405 1.000035,167.666794 1.000018,1.000143 
	C167.666565,1.000095 334.333130,1.000095 500.999756,1.000047 
	C500.999847,167.666519 500.999847,334.333038 500.999939,500.999786 
	C433.500000,501.000000 366.000000,501.000000 298.000000,501.000000 
M350.276398,370.336700 
	C347.174042,369.985229 344.000214,369.928253 340.989960,369.197418 
	C338.120941,368.500916 335.470276,365.658691 332.044769,369.071564 
	C331.920074,369.187103 331.795380,369.302643 331.111450,369.618774 
	C328.799408,368.304382 325.314850,367.541901 324.389038,365.574982 
	C321.259186,358.925690 319.036713,351.849304 317.177155,344.824371 
	C343.515259,321.639709 357.271454,292.336609 358.802948,257.456543 
	C359.839111,233.857925 354.191132,211.695694 342.067383,191.317673 
	C338.777130,185.787292 335.250977,180.397263 332.184326,174.313873 
	C333.148834,170.463577 335.951813,165.703720 334.611145,162.993866 
	C332.946350,159.628815 329.517181,155.376221 323.767670,155.401947 
	C323.464813,155.224121 323.149536,155.198395 322.810822,155.235718 
	C322.810822,155.235718 322.748535,155.171127 322.894592,154.403427 
	C315.355316,130.232010 301.404297,110.287857 282.235291,94.040512 
	C251.384766,67.892113 215.427597,58.780231 175.734940,63.629955 
	C154.211060,66.259773 134.835831,74.802864 116.417702,87.031113 
	C115.918571,87.571655 115.419449,88.112190 114.546951,88.925964 
	C114.546951,88.925964 114.107445,89.070526 113.337769,89.025871 
	C109.837128,90.192337 105.949417,90.942657 105.484924,96.356659 
	C97.527283,105.692863 88.348129,114.252655 81.831650,124.504883 
	C58.452179,161.287277 54.563820,200.857529 68.247681,242.038010 
	C74.071350,259.563904 83.462593,275.187225 96.860626,288.776733 
	C97.049507,289.050476 97.294685,289.257568 97.887733,289.997528 
	C103.921730,295.363922 109.987404,300.695435 115.963715,306.125305 
	C117.200363,307.248871 118.104767,308.738159 118.882027,310.742371 
	C117.902496,314.663055 116.553398,318.543610 116.120880,322.523743 
	C115.941734,324.172241 117.914146,327.593903 118.580513,327.512970 
	C120.785881,327.245026 123.771004,326.300293 124.771759,324.614746 
	C127.238487,320.460144 130.515808,318.881470 135.379562,319.666199 
	C144.889694,333.890015 156.578308,345.943878 170.963043,355.293030 
	C184.193237,363.891846 198.529785,370.397125 214.049042,372.670441 
	C232.105911,375.315399 250.440735,375.893677 268.375183,370.878235 
	C279.560577,367.750214 290.536926,364.034790 300.558594,357.145294 
	C300.844604,357.432495 301.130646,357.719666 301.697174,358.583221 
	C302.704559,360.069580 303.847351,361.482941 304.695282,363.055298 
	C307.916107,369.027527 311.041565,375.051208 313.643036,381.593658 
	C313.792725,383.594330 313.644318,385.677704 314.170349,387.574005 
	C314.776733,389.760162 316.274170,391.701263 316.865936,393.889069 
	C318.602509,400.309479 320.814423,401.779663 327.016235,399.466217 
	C330.062164,398.329987 332.779846,396.326569 335.677429,394.774078 
	C336.910309,394.113464 338.177032,393.266113 339.508270,393.082367 
	C345.198761,392.296967 349.669800,389.612061 352.994995,385.009979 
	C352.994995,385.009979 353.027252,385.057648 353.630524,384.727173 
	C355.097717,380.895721 356.789429,377.127502 357.897522,373.194885 
	C358.237396,371.988708 357.191498,369.259125 356.407867,369.103668 
	C354.743469,368.773468 352.834595,369.675476 350.276398,370.336700 
M377.704895,278.659546 
	C377.475647,279.775513 377.246429,280.891449 376.793243,282.752106 
	C376.513275,284.319702 376.233307,285.887329 375.976166,287.327118 
	C379.430420,288.411835 382.421600,289.351135 385.412781,290.290466 
	C385.285950,290.806396 385.159088,291.322357 385.032257,291.838287 
	C382.150482,291.838287 379.150970,292.338623 376.420319,291.696228 
	C373.741119,291.065979 373.684448,292.082550 373.184723,294.065704 
	C371.791107,295.328644 370.397522,296.591583 368.377625,298.043060 
	C367.947784,298.114929 367.517975,298.186768 366.733490,297.685974 
	C362.291046,298.316681 358.576172,305.186157 360.006470,310.809357 
	C360.988861,311.611908 361.903992,312.521332 362.969299,313.192139 
	C364.584412,314.209137 366.303986,315.060333 367.667053,316.651703 
	C366.676514,317.720764 364.707855,318.997070 364.882050,319.819366 
	C365.370758,322.125916 366.743439,324.245209 367.956177,326.842682 
	C363.825470,327.787872 358.785461,327.895752 357.860107,333.208038 
	C355.779877,331.873901 353.699615,330.539795 351.750061,329.289490 
	C348.268311,332.057220 348.640259,334.755096 350.986481,337.945465 
	C353.315765,341.112793 355.152710,344.642181 357.630157,348.709869 
	C352.715912,348.011963 348.538361,347.830902 344.610687,346.745605 
	C340.637482,345.647766 338.746979,347.112396 337.439911,351.027771 
	C343.671326,355.172211 350.013336,359.390228 356.651367,363.805115 
	C357.636261,362.377899 358.527496,361.086365 359.457031,359.739349 
	C357.393707,357.888855 355.625214,356.302765 353.002045,353.950165 
	C356.570770,353.950165 358.704376,353.878479 360.831482,353.965759 
	C364.720917,354.125336 365.298096,352.503265 363.396118,349.431335 
	C362.173950,347.457397 360.955780,345.480957 359.710358,343.464386 
	C363.642944,341.470062 368.255768,350.924133 370.810120,341.660095 
	C366.789825,339.135651 362.730804,336.586884 358.546570,332.980011 
	C367.183868,333.060028 376.621399,330.422211 381.974884,340.484833 
	C384.945007,337.497498 384.536224,335.381348 382.060425,332.903229 
	C377.974030,328.813019 374.174744,324.429047 370.374390,320.064453 
	C369.338318,318.874542 368.731079,317.311249 368.609833,315.423187 
	C372.908356,316.924316 377.206879,318.425446 381.790985,320.026337 
	C382.360168,318.253235 382.829987,316.789642 383.280853,315.385071 
	C380.305786,314.008942 377.775513,312.838562 373.869324,311.031708 
	C377.100128,310.083221 378.783875,309.149017 380.446045,309.185913 
	C384.895752,309.284698 388.587280,308.873810 388.536743,302.543701 
	C388.547455,299.375519 393.579163,297.501953 390.884583,292.891052 
	C392.057434,289.056976 390.864410,286.185913 388.016296,283.994019 
	C389.011658,282.747375 390.007019,281.500732 391.796906,280.200073 
	C392.663452,278.848694 393.529999,277.497345 394.709747,275.657532 
	C390.692596,274.988983 387.885651,274.727570 385.223267,273.962952 
	C384.335876,273.708130 383.818604,272.164612 383.132111,271.210175 
	C384.123413,270.543274 385.072327,269.412720 386.115875,269.317322 
	C387.710571,269.171509 389.362946,269.817108 391.005371,269.980896 
	C392.261505,270.106171 393.540161,270.005798 394.833496,270.005798 
	C394.833496,268.287872 394.833496,266.889496 394.833496,265.431763 
	C391.601440,264.944153 388.683228,264.344116 385.735657,264.101685 
	C382.441925,263.830811 379.705780,265.032288 379.012695,268.558044 
	C378.402740,271.660980 378.308929,274.865356 377.704895,278.659546 
z"/>
<path fill="#82D0FD" opacity="1.000000" stroke="none" 
	d="
M331.833099,174.942810 
	C335.250977,180.397263 338.777130,185.787292 342.067383,191.317673 
	C354.191132,211.695694 359.839111,233.857925 358.802948,257.456543 
	C357.271454,292.336609 343.515259,321.639709 316.664001,344.653625 
	C315.774780,343.644318 315.398712,342.805786 315.024567,341.587708 
	C312.807190,334.125305 310.391022,327.095856 308.446747,319.938263 
	C307.381775,316.017670 307.864502,311.567841 306.337769,307.903046 
	C302.588074,298.902252 298.291718,290.107849 293.813324,281.438080 
	C289.507416,273.102173 284.696686,265.026978 280.035858,256.504089 
	C278.897430,254.464615 277.830841,252.758270 276.685425,250.718933 
	C278.253601,246.213516 279.904510,242.042633 281.545380,237.867813 
	C282.108734,236.434570 283.365295,234.823166 283.074310,233.581604 
	C281.704346,227.735886 283.178253,222.546661 285.664520,217.348450 
	C286.559570,215.477051 287.254883,213.134567 286.982513,211.152588 
	C286.240082,205.750244 288.695770,202.399246 293.797333,199.343704 
	C295.380188,201.194534 297.043030,203.229279 298.805176,205.173996 
	C300.584076,207.137222 302.428070,209.044647 304.302460,210.917572 
	C308.734253,215.345932 312.640594,215.144836 316.194336,210.119812 
	C323.685303,199.527451 327.658478,187.420212 331.215088,175.016724 
	C331.417725,174.969299 331.833099,174.942810 331.833099,174.942810 
z"/>
<path fill="#82D0FD" opacity="1.000000" stroke="none" 
	d="
M299.989807,356.927429 
	C290.536926,364.034790 279.560577,367.750214 268.375183,370.878235 
	C250.440735,375.893677 232.105911,375.315399 214.049042,372.670441 
	C198.529785,370.397125 184.193237,363.891846 170.963043,355.293030 
	C156.578308,345.943878 144.889694,333.890015 135.407455,319.262482 
	C135.753143,318.836823 136.032013,318.721039 136.691727,318.485809 
	C141.128754,318.260529 145.075500,318.033142 146.793655,313.330566 
	C147.029449,312.685181 148.360962,312.051147 149.173813,312.065277 
	C157.922760,312.217163 166.710541,312.071533 175.401550,312.905273 
	C180.777390,313.421021 186.006271,315.476379 191.299042,316.848633 
	C199.910889,319.081421 208.567841,321.159180 217.109772,323.633698 
	C220.735931,324.684174 223.550354,324.939117 226.491852,321.863922 
	C237.733521,310.111176 249.659760,298.973145 258.542999,284.854553 
	C259.196198,285.619965 259.805664,286.348938 260.430756,287.064270 
	C268.714661,296.543884 277.120819,305.921143 285.196289,315.575043 
	C287.059296,317.802185 288.338837,320.861511 288.935425,323.735382 
	C290.377625,330.682617 290.602325,337.940216 292.598297,344.694305 
	C293.904480,349.114136 297.448273,352.872681 299.989807,356.927429 
z"/>
<path fill="#02285B" opacity="1.000000" stroke="none" 
	d="
M300.274200,357.036377 
	C297.448273,352.872681 293.904480,349.114136 292.598297,344.694305 
	C290.602325,337.940216 290.377625,330.682617 288.935425,323.735382 
	C288.338837,320.861511 287.059296,317.802185 285.196289,315.575043 
	C277.120819,305.921143 268.714661,296.543884 260.430756,287.064270 
	C259.805664,286.348938 259.196198,285.619965 258.542999,284.854553 
	C249.659760,298.973145 237.733521,310.111176 226.491852,321.863922 
	C223.550354,324.939117 220.735931,324.684174 217.109772,323.633698 
	C208.567841,321.159180 199.910889,319.081421 191.299042,316.848633 
	C186.006271,315.476379 180.777390,313.421021 175.401550,312.905273 
	C166.710541,312.071533 157.922760,312.217163 149.173813,312.065277 
	C148.360962,312.051147 147.029449,312.685181 146.793655,313.330566 
	C145.075500,318.033142 141.128754,318.260529 136.446930,318.125244 
	C128.626846,314.362610 125.385941,320.486084 120.428185,324.810638 
	C119.819527,322.459900 118.938499,320.825256 119.089760,319.292480 
	C119.464500,315.495361 120.311226,311.744812 121.100723,307.676208 
	C122.826836,305.605835 124.420547,303.834747 126.384537,302.045715 
	C127.579376,301.081482 128.930664,300.240234 129.143707,299.172028 
	C130.614990,291.795227 136.701660,288.119659 141.441299,283.354004 
	C143.310425,281.474609 144.656021,281.909790 146.346451,283.819641 
	C149.314468,287.172913 152.514633,290.336365 155.797363,293.385742 
	C156.755203,294.275513 158.343369,295.011353 159.607986,294.960205 
	C167.235779,294.652008 174.883636,294.370972 182.466202,293.543854 
	C190.246597,292.695129 197.463242,293.105774 204.584763,297.125214 
	C213.199112,301.987305 215.371292,301.020447 220.172150,292.455933 
	C220.807266,291.322937 221.201614,290.032776 221.567596,288.774719 
	C223.712372,281.401672 226.166656,274.364502 232.197052,268.878876 
	C234.393738,266.880646 234.889954,263.013092 236.509613,260.042236 
	C239.136032,259.395325 241.377274,258.313141 243.700897,258.090424 
	C249.614273,257.523682 255.560822,257.226135 261.500977,257.036530 
	C267.699036,256.838715 273.905151,256.893097 280.107727,256.837219 
	C284.696686,265.026978 289.507416,273.102173 293.813324,281.438080 
	C298.291718,290.107849 302.588074,298.902252 306.337769,307.903046 
	C307.864502,311.567841 307.381775,316.017670 308.446747,319.938263 
	C310.391022,327.095856 312.807190,334.125305 314.739014,341.856110 
	C315.322571,347.806824 315.231049,353.529510 317.313629,358.303802 
	C319.795380,363.993042 321.832153,370.919189 329.515411,372.464539 
	C330.362762,372.634949 331.237183,372.670990 332.098999,372.769409 
	C331.956238,371.652344 331.813477,370.535248 331.670715,369.418182 
	C331.795380,369.302643 331.920074,369.187103 332.650238,369.302551 
	C335.297668,370.473480 337.383728,371.329132 339.372894,372.370026 
	C344.257904,374.926208 348.925354,374.494995 353.195251,370.763123 
	C356.192749,372.423553 356.451660,374.653381 354.976746,377.691803 
	C353.888306,379.934174 353.646362,382.587463 353.027252,385.057648 
	C353.027252,385.057648 352.994995,385.009979 352.633148,385.006042 
	C350.657349,385.676147 349.012451,386.285645 347.437378,387.040863 
	C345.525146,387.957764 343.743744,389.183533 341.777344,389.943573 
	C338.288818,391.291931 334.381317,391.841614 331.220947,393.698639 
	C322.773163,398.662384 321.728912,398.549713 317.986755,389.599457 
	C317.324036,386.803558 316.656616,384.405884 315.989441,381.755249 
	C315.989044,381.333618 315.988403,381.164978 316.124695,380.681763 
	C316.218689,379.284088 316.509033,378.040436 316.077362,377.144775 
	C313.760162,372.337036 311.657532,367.345917 308.665558,362.976349 
	C307.122070,360.722229 303.887268,359.626190 301.416656,358.006866 
	C301.130646,357.719666 300.844604,357.432495 300.274200,357.036377 
z"/>
<path fill="#5B95B5" opacity="1.000000" stroke="none" 
	d="
M96.646667,288.341217 
	C83.462593,275.187225 74.071350,259.563904 68.247681,242.038010 
	C54.563820,200.857529 58.452179,161.287277 81.831650,124.504883 
	C88.348129,114.252655 97.527283,105.692863 106.038315,96.020187 
	C109.096947,93.479317 111.602196,91.274918 114.107445,89.070526 
	C114.107445,89.070526 114.546951,88.925964 115.010521,88.750168 
	C115.990097,88.053543 116.506104,87.532715 117.022118,87.011887 
	C134.835831,74.802864 154.211060,66.259773 175.734940,63.629955 
	C215.427597,58.780231 251.384766,67.892113 282.235291,94.040512 
	C301.404297,110.287857 315.355316,130.232010 322.471863,154.808105 
	C320.937531,156.763474 319.825897,158.314163 318.437744,159.924698 
	C317.973480,160.002716 317.785736,160.020874 317.463562,160.145828 
	C317.329163,160.252609 316.990875,160.189468 317.000763,159.775375 
	C318.196747,154.606873 319.821625,149.846008 316.033630,145.395126 
	C315.613190,144.901123 316.061218,143.745499 315.729126,143.087006 
	C311.800781,135.297745 307.800568,127.544739 303.819244,119.782196 
	C303.200714,119.929886 302.582214,120.077583 301.963715,120.225273 
	C301.762207,121.654343 301.368103,123.087006 301.394653,124.511826 
	C301.479767,129.080307 301.720459,133.645889 301.591705,138.003983 
	C299.874359,131.849594 298.347137,125.928940 297.088379,119.951744 
	C295.483215,112.329475 287.938416,106.013718 280.197754,105.652519 
	C282.849365,104.945053 285.303314,104.482483 288.061615,103.962540 
	C287.759186,103.052628 287.742188,101.810860 287.135895,101.358002 
	C279.502167,95.655945 271.977844,89.771591 264.022308,84.547928 
	C258.083832,80.648674 251.874100,76.725006 245.225159,74.445915 
	C234.752518,70.856171 223.765305,68.796288 213.076401,65.801521 
	C199.691223,62.051334 186.405884,64.549530 173.117676,66.114899 
	C168.303558,66.682022 163.583176,68.046532 158.821213,69.052818 
	C158.336380,69.155266 157.824249,69.221840 157.384552,69.430817 
	C146.723099,74.497681 135.099976,77.522217 125.450073,84.751419 
	C119.121323,89.492577 112.247246,93.560410 106.248215,98.670364 
	C101.170578,102.995483 96.655411,108.114059 92.518440,113.374664 
	C87.959259,119.172127 83.553169,125.234505 80.114578,131.729050 
	C76.498718,138.558380 73.931007,145.970657 71.234505,153.250153 
	C68.980736,159.334442 66.920753,165.520752 65.271675,171.792496 
	C61.842907,184.832703 62.846966,198.212387 63.165459,211.462799 
	C63.302567,217.166779 64.850487,222.889511 66.220528,228.490479 
	C66.986252,231.620895 68.791901,234.483994 69.968781,237.529449 
	C72.421501,243.876465 74.325096,250.482132 77.311646,256.560272 
	C79.341988,260.692383 82.998108,263.994568 85.616959,267.877136 
	C88.322899,271.888794 90.712448,276.119781 93.126297,280.320374 
	C94.551231,282.800049 95.754791,285.406952 96.954559,288.052216 
	C96.851219,288.147797 96.646667,288.341217 96.646667,288.341217 
z"/>
<path fill="#152F54" opacity="1.000000" stroke="none" 
	d="
M358.671783,334.038116 
	C362.730804,336.586884 366.789825,339.135651 370.810120,341.660095 
	C368.255768,350.924133 363.642944,341.470062 359.710358,343.464386 
	C360.955780,345.480957 362.173950,347.457397 363.396118,349.431335 
	C365.298096,352.503265 364.720917,354.125336 360.831482,353.965759 
	C358.704376,353.878479 356.570770,353.950165 353.002045,353.950165 
	C355.625214,356.302765 357.393707,357.888855 359.457031,359.739349 
	C358.527496,361.086365 357.636261,362.377899 356.651367,363.805115 
	C350.013336,359.390228 343.671326,355.172211 337.439911,351.027771 
	C338.746979,347.112396 340.637482,345.647766 344.610687,346.745605 
	C348.538361,347.830902 352.715912,348.011963 357.630157,348.709869 
	C355.152710,344.642181 353.315765,341.112793 350.986481,337.945465 
	C348.640259,334.755096 348.268311,332.057220 351.750061,329.289490 
	C353.699615,330.539795 355.779877,331.873901 358.130737,333.571472 
	C358.401337,333.934937 358.671783,334.038116 358.671783,334.038116 
z"/>
<path fill="#163053" opacity="1.000000" stroke="none" 
	d="
M367.979156,315.981964 
	C366.303986,315.060333 364.584412,314.209137 362.969299,313.192139 
	C361.903992,312.521332 360.988861,311.611908 360.298157,310.205566 
	C362.755920,305.820709 364.922028,302.039673 367.088135,298.258636 
	C367.517975,298.186768 367.947784,298.114929 369.059021,298.025696 
	C372.638580,299.990692 375.536682,301.973053 379.260193,304.519989 
	C381.184418,304.184326 384.589539,303.590332 387.994690,302.996338 
	C388.587280,308.873810 384.895752,309.284698 380.446045,309.185913 
	C378.783875,309.149017 377.100128,310.083221 373.869324,311.031708 
	C377.775513,312.838562 380.305786,314.008942 383.280853,315.385071 
	C382.829987,316.789642 382.360168,318.253235 381.790985,320.026337 
	C377.206879,318.425446 372.908356,316.924316 368.270386,315.699341 
	C367.930939,315.975525 367.979156,315.981964 367.979156,315.981964 
M372.491211,305.683716 
	C371.458618,304.826691 370.426056,303.969666 369.393494,303.112640 
	C368.100922,304.778778 366.808380,306.444946 365.215698,308.497955 
	C367.641998,309.324310 369.144653,309.836090 370.928253,310.443573 
	C371.489563,308.935028 371.937988,307.729828 372.491211,305.683716 
z"/>
<path fill="#1A3454" opacity="1.000000" stroke="none" 
	d="
M358.609192,333.509064 
	C358.671783,334.038116 358.401337,333.934937 358.345764,333.889526 
	C358.785461,327.895752 363.825470,327.787872 367.956177,326.842682 
	C366.743439,324.245209 365.370758,322.125916 364.882050,319.819366 
	C364.707855,318.997070 366.676514,317.720764 367.823120,316.316833 
	C367.979156,315.981964 367.930939,315.975525 367.928986,315.947418 
	C368.731079,317.311249 369.338318,318.874542 370.374390,320.064453 
	C374.174744,324.429047 377.974030,328.813019 382.060425,332.903229 
	C384.536224,335.381348 384.945007,337.497498 381.974884,340.484833 
	C376.621399,330.422211 367.183868,333.060028 358.609192,333.509064 
z"/>
<path fill="#1D3456" opacity="1.000000" stroke="none" 
	d="
M373.821503,293.984039 
	C373.684448,292.082550 373.741119,291.065979 376.420319,291.696228 
	C379.150970,292.338623 382.150482,291.838287 385.032257,291.838287 
	C385.159088,291.322357 385.285950,290.806396 385.412781,290.290466 
	C382.421600,289.351135 379.430420,288.411835 375.976166,287.327118 
	C376.233307,285.887329 376.513275,284.319702 377.296326,282.367615 
	C380.989014,282.739532 384.178619,283.495911 387.368256,284.252319 
	C390.864410,286.185913 392.057434,289.056976 390.584534,293.516235 
	C388.187347,295.592468 385.818359,298.511292 384.050690,298.183838 
	C380.552490,297.535889 375.622589,299.071930 373.821503,293.984039 
z"/>
<path fill="#193052" opacity="1.000000" stroke="none" 
	d="
M377.987183,278.024933 
	C378.308929,274.865356 378.402740,271.660980 379.012695,268.558044 
	C379.705780,265.032288 382.441925,263.830811 385.735657,264.101685 
	C388.683228,264.344116 391.601440,264.944153 394.833496,265.431763 
	C394.833496,266.889496 394.833496,268.287872 394.833496,270.005798 
	C393.540161,270.005798 392.261505,270.106171 391.005371,269.980896 
	C389.362946,269.817108 387.710571,269.171509 386.115875,269.317322 
	C385.072327,269.412720 384.123413,270.543274 383.132141,271.210205 
	C383.818604,272.164612 384.335876,273.708130 385.223267,273.962952 
	C387.885651,274.727570 390.692596,274.988983 394.709747,275.657532 
	C393.529999,277.497345 392.663452,278.848694 390.998840,280.104492 
	C386.129547,279.347595 382.058380,278.686279 377.987183,278.024933 
z"/>
<path fill="#132845" opacity="1.000000" stroke="none" 
	d="
M315.987793,380.996338 
	C315.988403,381.164978 315.989044,381.333618 315.722961,381.985260 
	C316.298157,384.978058 317.140106,387.487885 317.982056,389.997711 
	C321.728912,398.549713 322.773163,398.662384 331.220947,393.698639 
	C334.381317,391.841614 338.288818,391.291931 341.777344,389.943573 
	C343.743744,389.183533 345.525146,387.957764 347.437378,387.040863 
	C349.012451,386.285645 350.657349,385.676147 352.661316,385.011902 
	C349.669800,389.612061 345.198761,392.296967 339.508270,393.082367 
	C338.177032,393.266113 336.910309,394.113464 335.677429,394.774078 
	C332.779846,396.326569 330.062164,398.329987 327.016235,399.466217 
	C320.814423,401.779663 318.602509,400.309479 316.865936,393.889069 
	C316.274170,391.701263 314.776733,389.760162 314.170349,387.574005 
	C313.644318,385.677704 313.792725,383.594330 314.220306,381.310608 
	C315.194305,381.017181 315.591064,381.006775 315.987793,380.996338 
z"/>
<path fill="#E5F1F5" opacity="1.000000" stroke="none" 
	d="
M373.503113,294.024872 
	C375.622589,299.071930 380.552490,297.535889 384.050690,298.183838 
	C385.818359,298.511292 388.187347,295.592468 390.560547,293.882629 
	C393.579163,297.501953 388.547455,299.375519 388.265717,302.770020 
	C384.589539,303.590332 381.184418,304.184326 379.260193,304.519989 
	C375.536682,301.973053 372.638580,299.990692 369.372192,297.931458 
	C370.397522,296.591583 371.791107,295.328644 373.503113,294.024872 
z"/>
<path fill="#5B95B5" opacity="1.000000" stroke="none" 
	d="
M126.014252,302.063660 
	C124.420547,303.834747 122.826836,305.605835 120.868408,307.845367 
	C120.056564,308.895538 119.609428,309.477203 119.162292,310.058899 
	C118.104767,308.738159 117.200363,307.248871 115.963715,306.125305 
	C109.987404,300.695435 103.921730,295.363922 97.850464,289.590790 
	C97.813187,289.184052 98.026077,288.966034 98.414459,288.977142 
	C100.862480,290.310150 103.025368,291.498718 104.952644,292.991516 
	C106.867668,294.474823 108.288322,296.962555 110.394241,297.738708 
	C112.910576,298.666138 114.694748,299.298248 115.533913,302.226349 
	C115.773056,303.060822 119.105774,303.442810 120.937210,303.249420 
	C122.401848,303.094818 123.741150,301.753052 125.346878,301.068298 
	C125.802696,301.437836 125.954880,301.726257 126.014252,302.063660 
z"/>
<path fill="#132C4A" opacity="1.000000" stroke="none" 
	d="
M119.022156,310.400635 
	C119.609428,309.477203 120.056564,308.895538 120.736008,308.144714 
	C120.311226,311.744812 119.464500,315.495361 119.089760,319.292480 
	C118.938499,320.825256 119.819527,322.459900 120.428185,324.810638 
	C125.385941,320.486084 128.626846,314.362610 136.027161,318.150848 
	C136.032013,318.721039 135.753143,318.836823 135.239960,318.976257 
	C130.515808,318.881470 127.238487,320.460144 124.771759,324.614746 
	C123.771004,326.300293 120.785881,327.245026 118.580513,327.512970 
	C117.914146,327.593903 115.941734,324.172241 116.120880,322.523743 
	C116.553398,318.543610 117.902496,314.663055 119.022156,310.400635 
z"/>
<path fill="#132C4A" opacity="1.000000" stroke="none" 
	d="
M331.391052,369.518494 
	C331.813477,370.535248 331.956238,371.652344 332.098999,372.769409 
	C331.237183,372.670990 330.362762,372.634949 329.515411,372.464539 
	C321.832153,370.919189 319.795380,363.993042 317.313629,358.303802 
	C315.231049,353.529510 315.322571,347.806824 314.737091,342.235657 
	C315.398712,342.805786 315.774780,343.644318 316.309143,344.709534 
	C319.036713,351.849304 321.259186,358.925690 324.389038,365.574982 
	C325.314850,367.541901 328.799408,368.304382 331.391052,369.518494 
z"/>
<path fill="#132C4A" opacity="1.000000" stroke="none" 
	d="
M318.714264,159.864853 
	C319.825897,158.314163 320.937531,156.763474 322.398865,155.191956 
	C322.748535,155.171127 322.810822,155.235718 322.937073,155.546127 
	C323.421600,155.810669 323.779816,155.764801 324.138062,155.718948 
	C329.517181,155.376221 332.946350,159.628815 334.611145,162.993866 
	C335.951813,165.703720 333.148834,170.463577 332.008728,174.628342 
	C331.833099,174.942810 331.417725,174.969299 330.963196,174.779633 
	C330.692505,173.497238 330.763458,172.370819 331.077881,171.317047 
	C333.786987,162.237152 332.173187,160.053314 322.660583,159.990143 
	C321.344940,159.981415 320.029694,159.908218 318.714264,159.864853 
z"/>
<path fill="#132C4A" opacity="1.000000" stroke="none" 
	d="
M316.124695,380.681763 
	C315.591064,381.006775 315.194305,381.017181 314.500122,381.041626 
	C311.041565,375.051208 307.916107,369.027527 304.695282,363.055298 
	C303.847351,361.482941 302.704559,360.069580 301.556915,358.295044 
	C303.887268,359.626190 307.122070,360.722229 308.665558,362.976349 
	C311.657532,367.345917 313.760162,372.337036 316.077362,377.144775 
	C316.509033,378.040436 316.218689,379.284088 316.124695,380.681763 
z"/>
<path fill="#132C4A" opacity="1.000000" stroke="none" 
	d="
M352.981689,371.002106 
	C348.925354,374.494995 344.257904,374.926208 339.372894,372.370026 
	C337.383728,371.329132 335.297668,370.473480 332.902954,369.268738 
	C335.470276,365.658691 338.120941,368.500916 340.989960,369.197418 
	C344.000214,369.928253 347.174042,369.985229 350.817932,370.438354 
	C351.900208,370.694031 352.440948,370.848053 352.981689,371.002106 
z"/>
<path fill="#132845" opacity="1.000000" stroke="none" 
	d="
M353.195251,370.763123 
	C352.440948,370.848053 351.900208,370.694031 351.192688,370.306152 
	C352.834595,369.675476 354.743469,368.773468 356.407867,369.103668 
	C357.191498,369.259125 358.237396,371.988708 357.897522,373.194885 
	C356.789429,377.127502 355.097717,380.895721 353.328888,384.892395 
	C353.646362,382.587463 353.888306,379.934174 354.976746,377.691803 
	C356.451660,374.653381 356.192749,372.423553 353.195251,370.763123 
z"/>
<path fill="#DDECEF" opacity="1.000000" stroke="none" 
	d="
M377.846039,278.342224 
	C382.058380,278.686279 386.129547,279.347595 390.601562,280.131531 
	C390.007019,281.500732 389.011658,282.747375 387.692261,284.123169 
	C384.178619,283.495911 380.989014,282.739532 377.408295,281.995270 
	C377.246429,280.891449 377.475647,279.775513 377.846039,278.342224 
z"/>
<path fill="#E5F1F5" opacity="1.000000" stroke="none" 
	d="
M366.910828,297.972290 
	C364.922028,302.039673 362.755920,305.820709 360.313965,309.834351 
	C358.576172,305.186157 362.291046,298.316681 366.910828,297.972290 
z"/>
<path fill="#DDECEF" opacity="1.000000" stroke="none" 
	d="
M113.722610,89.048203 
	C111.602196,91.274918 109.096947,93.479317 106.276947,95.785027 
	C105.949417,90.942657 109.837128,90.192337 113.722610,89.048203 
z"/>
<path fill="#DDECEF" opacity="1.000000" stroke="none" 
	d="
M116.719910,87.021500 
	C116.506104,87.532715 115.990097,88.053543 115.197205,88.613556 
	C115.419449,88.112190 115.918571,87.571655 116.719910,87.021500 
z"/>
<path fill="#5B95B5" opacity="1.000000" stroke="none" 
	d="
M97.704681,289.291016 
	C97.294685,289.257568 97.049507,289.050476 96.753647,288.558960 
	C96.646667,288.341217 96.851219,288.147797 97.159882,288.174194 
	C97.726250,288.403381 97.912094,288.658539 98.026077,288.966034 
	C98.026077,288.966034 97.813187,289.184052 97.704681,289.291016 
z"/>
<path fill="#5B95B5" opacity="1.000000" stroke="none" 
	d="
M323.952881,155.560455 
	C323.779816,155.764801 323.421600,155.810669 322.942596,155.590637 
	C323.149536,155.198395 323.464813,155.224121 323.952881,155.560455 
z"/>
<path fill="#02285B" opacity="1.000000" stroke="none" 
	d="
M318.437744,159.924698 
	C320.029694,159.908218 321.344940,159.981415 322.660583,159.990143 
	C332.173187,160.053314 333.786987,162.237152 331.077881,171.317047 
	C330.763458,172.370819 330.692505,173.497238 330.760559,174.827057 
	C327.658478,187.420212 323.685303,199.527451 316.194336,210.119812 
	C312.640594,215.144836 308.734253,215.345932 304.302460,210.917572 
	C302.428070,209.044647 300.584076,207.137222 298.805176,205.173996 
	C297.043030,203.229279 295.380188,201.194534 293.797333,199.343704 
	C288.695770,202.399246 286.240082,205.750244 286.982513,211.152588 
	C287.254883,213.134567 286.559570,215.477051 285.664520,217.348450 
	C283.178253,222.546661 281.704346,227.735886 283.074310,233.581604 
	C283.365295,234.823166 282.108734,236.434570 281.545380,237.867813 
	C279.904510,242.042633 278.253601,246.213516 276.394012,250.901749 
	C274.476135,252.288651 272.831726,253.752808 271.055817,253.934937 
	C259.220245,255.148697 247.356613,256.088593 235.313934,256.806885 
	C233.395401,251.430832 234.392822,246.624451 236.729599,242.051773 
	C239.150436,237.314560 241.966080,232.773346 244.264053,227.980972 
	C246.102631,224.146606 247.424133,220.064285 248.999527,215.800522 
	C255.662537,211.545593 253.457718,201.402252 247.500183,197.766541 
	C246.022919,190.593307 244.786499,183.732742 243.610580,177.207886 
	C235.015213,179.042587 227.676117,180.609146 220.351028,182.172714 
	C222.497055,189.449860 224.119370,191.461365 231.313004,199.224655 
	C234.672119,202.849747 237.787567,203.954300 242.019165,201.661163 
	C243.096680,206.683868 248.290268,210.418091 245.224823,216.047943 
	C245.186539,216.118256 245.674698,216.475235 245.681122,217.005768 
	C241.437256,220.750137 237.625397,219.094543 234.244354,216.467896 
	C229.557541,212.826843 224.910248,209.061234 220.713364,204.879868 
	C213.726364,197.918747 206.952499,190.722061 200.495483,183.272156 
	C199.434738,182.048309 199.776245,178.664581 200.694595,176.926178 
	C201.682800,175.055527 203.905701,173.455811 205.950668,172.591766 
	C214.138428,169.132294 222.485138,166.050827 230.722153,162.704239 
	C231.976471,162.194626 232.962433,161.024490 234.433044,160.106079 
	C238.866028,158.384216 242.938477,156.716110 247.160294,155.342560 
	C248.351120,156.334946 249.305374,157.401474 250.447968,157.671692 
	C258.821716,159.652115 267.215607,161.559631 275.647461,163.271957 
	C277.358856,163.619492 279.258331,163.041077 281.390869,163.012772 
	C285.162567,166.172775 288.880402,168.967697 291.954803,172.347870 
	C293.502594,174.049591 293.410950,177.190033 294.877899,179.027390 
	C299.442963,184.745041 304.398560,190.150848 309.484589,196.001923 
	C314.092773,191.039719 317.316895,184.814651 319.500824,178.010773 
	C319.880585,176.827713 319.798645,175.418777 319.634216,174.152573 
	C319.022217,169.439392 318.286957,164.742218 317.597961,160.039047 
	C317.785736,160.020874 317.973480,160.002716 318.437744,159.924698 
z"/>
<path fill="#011E4A" opacity="1.000000" stroke="none" 
	d="
M235.502090,257.117462 
	C247.356613,256.088593 259.220245,255.148697 271.055817,253.934937 
	C272.831726,253.752808 274.476135,252.288651 276.472839,251.234741 
	C277.830841,252.758270 278.897430,254.464615 280.035858,256.504089 
	C273.905151,256.893097 267.699036,256.838715 261.500977,257.036530 
	C255.560822,257.226135 249.614273,257.523682 243.700897,258.090424 
	C241.377274,258.313141 239.136032,259.395325 236.411926,259.685608 
	C235.811768,258.562592 235.656921,257.840027 235.502090,257.117462 
z"/>
<path fill="#80D0FE" opacity="1.000000" stroke="none" 
	d="
M235.313934,256.806885 
	C235.656921,257.840027 235.811768,258.562592 236.064270,259.641785 
	C234.889954,263.013092 234.393738,266.880646 232.197052,268.878876 
	C226.166656,274.364502 223.712372,281.401672 221.567596,288.774719 
	C221.201614,290.032776 220.807266,291.322937 220.172150,292.455933 
	C215.371292,301.020447 213.199112,301.987305 204.584763,297.125214 
	C197.463242,293.105774 190.246597,292.695129 182.466202,293.543854 
	C174.883636,294.370972 167.235779,294.652008 159.607986,294.960205 
	C158.343369,295.011353 156.755203,294.275513 155.797363,293.385742 
	C152.514633,290.336365 149.314468,287.172913 146.346451,283.819641 
	C144.656021,281.909790 143.310425,281.474609 141.441299,283.354004 
	C136.701660,288.119659 130.614990,291.795227 129.143707,299.172028 
	C128.930664,300.240234 127.579376,301.081482 126.384521,302.045715 
	C125.954880,301.726257 125.802696,301.437836 125.270912,300.707367 
	C115.617935,278.358887 113.367462,255.411697 117.395950,232.349319 
	C123.225090,198.978546 140.510818,172.232056 168.502228,152.822754 
	C192.703033,136.041870 219.792648,130.018097 248.903320,132.081665 
	C249.651627,132.134705 250.362549,132.714783 250.987671,133.378693 
	C248.913254,136.366165 247.039352,139.103592 244.946640,141.662048 
	C242.234039,144.978333 240.074219,148.401138 240.773102,153.098083 
	C238.733093,153.513977 237.028305,153.785843 234.879990,154.128448 
	C234.626495,156.022003 234.349503,158.090927 234.072525,160.159851 
	C232.962433,161.024490 231.976471,162.194626 230.722153,162.704239 
	C222.485138,166.050827 214.138428,169.132294 205.950668,172.591766 
	C203.905701,173.455811 201.682800,175.055527 200.694595,176.926178 
	C199.776245,178.664581 199.434738,182.048309 200.495483,183.272156 
	C206.952499,190.722061 213.726364,197.918747 220.713364,204.879868 
	C224.910248,209.061234 229.557541,212.826843 234.244354,216.467896 
	C237.625397,219.094543 241.437256,220.750137 245.998169,217.013885 
	C247.359177,216.507111 248.167160,216.299561 248.975128,216.092026 
	C247.424133,220.064285 246.102631,224.146606 244.264053,227.980972 
	C241.966080,232.773346 239.150436,237.314560 236.729599,242.051773 
	C234.392822,246.624451 233.395401,251.430832 235.313934,256.806885 
z"/>
<path fill="#132C4A" opacity="1.000000" stroke="none" 
	d="
M317.986755,389.599457 
	C317.140106,387.487885 316.298157,384.978058 315.722717,382.238220 
	C316.656616,384.405884 317.324036,386.803558 317.986755,389.599457 
z"/>
<path fill="#4795C3" opacity="1.000000" stroke="none" 
	d="
M251.090912,133.049057 
	C250.362549,132.714783 249.651627,132.134705 248.903320,132.081665 
	C219.792648,130.018097 192.703033,136.041870 168.502228,152.822754 
	C140.510818,172.232056 123.225090,198.978546 117.395950,232.349319 
	C113.367462,255.411697 115.617935,278.358887 125.060104,300.577240 
	C123.741150,301.753052 122.401848,303.094818 120.937210,303.249420 
	C119.105774,303.442810 115.773056,303.060822 115.533913,302.226349 
	C114.694748,299.298248 112.910576,298.666138 110.394241,297.738708 
	C108.288322,296.962555 106.867668,294.474823 104.952644,292.991516 
	C103.025368,291.498718 100.862480,290.310150 98.414459,288.977142 
	C97.912094,288.658539 97.726250,288.403381 97.263222,288.078613 
	C95.754791,285.406952 94.551231,282.800049 93.126297,280.320374 
	C90.712448,276.119781 88.322899,271.888794 85.616959,267.877136 
	C82.998108,263.994568 79.341988,260.692383 77.311646,256.560272 
	C74.325096,250.482132 72.421501,243.876465 69.968781,237.529449 
	C68.791901,234.483994 66.986252,231.620895 66.220528,228.490479 
	C64.850487,222.889511 63.302567,217.166779 63.165459,211.462799 
	C62.846966,198.212387 61.842907,184.832703 65.271675,171.792496 
	C66.920753,165.520752 68.980736,159.334442 71.234505,153.250153 
	C73.931007,145.970657 76.498718,138.558380 80.114578,131.729050 
	C83.553169,125.234505 87.959259,119.172127 92.518440,113.374664 
	C96.655411,108.114059 101.170578,102.995483 106.248215,98.670364 
	C112.247246,93.560410 119.121323,89.492577 125.450073,84.751419 
	C135.099976,77.522217 146.723099,74.497681 157.384552,69.430817 
	C157.824249,69.221840 158.336380,69.155266 158.821213,69.052818 
	C163.583176,68.046532 168.303558,66.682022 173.117676,66.114899 
	C186.405884,64.549530 199.691223,62.051334 213.076401,65.801521 
	C223.765305,68.796288 234.752518,70.856171 245.225159,74.445915 
	C251.874100,76.725006 258.083832,80.648674 264.022308,84.547928 
	C271.977844,89.771591 279.502167,95.655945 287.135895,101.358002 
	C287.742188,101.810860 287.759186,103.052628 288.061615,103.962540 
	C285.303314,104.482483 282.849365,104.945053 280.012939,105.738045 
	C279.630493,106.068466 279.223755,106.084969 278.879456,106.083252 
	C278.048462,106.484154 277.561737,106.886765 276.925537,107.478500 
	C276.503052,107.856598 276.200592,107.954155 275.483215,107.976181 
	C271.405884,109.255188 267.713959,110.518295 263.742981,112.008598 
	C262.069397,113.345284 260.127258,114.170227 259.376831,115.614426 
	C256.411926,121.320526 253.820709,127.220795 251.090912,133.049057 
z"/>
<path fill="#02285A" opacity="1.000000" stroke="none" 
	d="
M275.868622,107.960289 
	C276.200592,107.954155 276.503052,107.856598 277.231232,107.397118 
	C278.198883,106.779388 278.711304,106.432182 279.223755,106.084969 
	C279.223755,106.084969 279.630493,106.068466 279.815308,105.982941 
	C287.938416,106.013718 295.483215,112.329475 297.088379,119.951744 
	C298.347137,125.928940 299.874359,131.849594 301.628052,138.369476 
	C301.940033,140.171417 301.906311,141.399277 301.554016,142.748932 
	C300.768311,143.562653 300.301208,144.254578 299.563110,145.109924 
	C298.902710,146.203659 298.513275,147.134003 297.967133,148.395157 
	C295.688782,155.797836 294.863525,156.054474 286.083130,151.758224 
	C284.344879,155.152176 282.591064,158.576462 280.445160,161.990051 
	C270.213348,159.451141 260.209198,157.454956 250.751022,152.634949 
	C250.254517,148.754501 249.975800,145.227280 249.697083,141.700058 
	C249.194458,141.488037 248.691833,141.276016 248.189194,141.063995 
	C246.451767,144.859726 244.752747,148.674255 242.918350,152.422516 
	C242.731812,152.803680 241.731186,152.786438 241.108337,152.954071 
	C240.074219,148.401138 242.234039,144.978333 244.946640,141.662048 
	C247.039352,139.103592 248.913254,136.366165 250.987671,133.378693 
	C253.820709,127.220795 256.411926,121.320526 259.376831,115.614426 
	C260.127258,114.170227 262.069397,113.345284 264.110809,112.095123 
	C266.809357,112.744186 268.861053,113.533920 270.318024,114.094727 
	C272.533661,111.646027 274.201141,109.803162 275.868622,107.960289 
z"/>
<path fill="#82CEFA" opacity="1.000000" stroke="none" 
	d="
M280.837280,162.000748 
	C282.591064,158.576462 284.344879,155.152176 286.083130,151.758224 
	C294.863525,156.054474 295.688782,155.797836 298.281189,148.516724 
	C304.831573,152.268143 310.911224,156.228806 316.990875,160.189468 
	C316.990875,160.189468 317.329163,160.252609 317.463562,160.145828 
	C318.286957,164.742218 319.022217,169.439392 319.634216,174.152573 
	C319.798645,175.418777 319.880585,176.827713 319.500824,178.010773 
	C317.316895,184.814651 314.092773,191.039719 309.484589,196.001923 
	C304.398560,190.150848 299.442963,184.745041 294.877899,179.027390 
	C293.410950,177.190033 293.502594,174.049591 291.954803,172.347870 
	C288.880402,168.967697 285.162567,166.172775 281.351074,162.785614 
	C280.991547,162.435196 280.837280,162.000748 280.837280,162.000748 
z"/>
<path fill="#4796C4" opacity="1.000000" stroke="none" 
	d="
M317.000763,159.775375 
	C310.911224,156.228806 304.831573,152.268143 298.437866,148.185913 
	C298.513275,147.134003 298.902710,146.203659 299.928436,145.081055 
	C301.000702,144.134918 301.436646,143.381027 301.872620,142.627136 
	C301.906311,141.399277 301.940033,140.171417 301.937439,138.578064 
	C301.720459,133.645889 301.479767,129.080307 301.394653,124.511826 
	C301.368103,123.087006 301.762207,121.654343 301.963715,120.225273 
	C302.582214,120.077583 303.200714,119.929886 303.819244,119.782196 
	C307.800568,127.544739 311.800781,135.297745 315.729126,143.087006 
	C316.061218,143.745499 315.613190,144.901123 316.033630,145.395126 
	C319.821625,149.846008 318.196747,154.606873 317.000763,159.775375 
z"/>
<path fill="#E5F1F5" opacity="1.000000" stroke="none" 
	d="
M372.438843,306.104156 
	C371.937988,307.729828 371.489563,308.935028 370.928253,310.443573 
	C369.144653,309.836090 367.641998,309.324310 365.215698,308.497955 
	C366.808380,306.444946 368.100922,304.778778 369.393494,303.112640 
	C370.426056,303.969666 371.458618,304.826691 372.438843,306.104156 
z"/>
<path fill="#83CCF8" opacity="1.000000" stroke="none" 
	d="
M242.010971,201.305817 
	C237.787567,203.954300 234.672119,202.849747 231.313004,199.224655 
	C224.119370,191.461365 222.497055,189.449860 220.351028,182.172714 
	C227.676117,180.609146 235.015213,179.042587 243.610580,177.207886 
	C244.786499,183.732742 246.022919,190.593307 247.501358,198.146957 
	C245.832565,199.661957 243.921768,200.483887 242.010971,201.305817 
z"/>
<path fill="#05234C" opacity="1.000000" stroke="none" 
	d="
M242.019165,201.661163 
	C243.921768,200.483887 245.832565,199.661957 247.742188,198.459595 
	C253.457718,201.402252 255.662537,211.545593 248.999527,215.800522 
	C248.167160,216.299561 247.359177,216.507111 246.234177,216.706528 
	C245.674698,216.475235 245.186539,216.118256 245.224823,216.047943 
	C248.290268,210.418091 243.096680,206.683868 242.019165,201.661163 
z"/>
<path fill="#88C6EE" opacity="1.000000" stroke="none" 
	d="
M240.773102,153.098083 
	C241.731186,152.786438 242.731812,152.803680 242.918350,152.422516 
	C244.752747,148.674255 246.451767,144.859726 248.189194,141.063995 
	C248.691833,141.276016 249.194458,141.488037 249.697083,141.700058 
	C249.975800,145.227280 250.254517,148.754501 250.727325,153.026001 
	C249.617935,154.196198 248.314438,154.622101 247.010941,155.048004 
	C242.938477,156.716110 238.866028,158.384216 234.433044,160.106079 
	C234.349503,158.090927 234.626495,156.022003 234.879990,154.128448 
	C237.028305,153.785843 238.733093,153.513977 240.773102,153.098083 
z"/>
<path fill="#011E4A" opacity="1.000000" stroke="none" 
	d="
M247.160294,155.342560 
	C248.314438,154.622101 249.617935,154.196198 250.945129,153.379242 
	C260.209198,157.454956 270.213348,159.451141 280.445160,161.990051 
	C280.837280,162.000748 280.991547,162.435196 281.031311,162.662354 
	C279.258331,163.041077 277.358856,163.619492 275.647461,163.271957 
	C267.215607,161.559631 258.821716,159.652115 250.447968,157.671692 
	C249.305374,157.401474 248.351120,156.334946 247.160294,155.342560 
z"/>
<path fill="#5B95B5" opacity="1.000000" stroke="none" 
	d="
M275.483215,107.976181 
	C274.201141,109.803162 272.533661,111.646027 270.318024,114.094727 
	C268.861053,113.533920 266.809357,112.744186 264.389832,111.867935 
	C267.713959,110.518295 271.405884,109.255188 275.483215,107.976181 
z"/>
<path fill="#5B95B5" opacity="1.000000" stroke="none" 
	d="
M278.879456,106.083252 
	C278.711304,106.432182 278.198883,106.779388 277.380737,107.207993 
	C277.561737,106.886765 278.048462,106.484154 278.879456,106.083252 
z"/>
<path fill="#5B95B5" opacity="1.000000" stroke="none" 
	d="
M301.554016,142.748932 
	C301.436646,143.381027 301.000702,144.134918 300.199402,144.917664 
	C300.301208,144.254578 300.768311,143.562653 301.554016,142.748932 
z"/>
</svg>